# xmcd CD database file
#
# Track frame offsets:
#	150
#	13877
#	27491
#	41676
#	55993
#	67332
#	80747
#	95476
#	108938
#	120190
#	133887
#	147624
#	163979
#	178333
#	199638
#	216447
#	248257
#	254789
#	280381
#	303945
#
# Disc length: 4317 seconds
#
# Revision: 0
# Processed by: cddbd v1.5.2PL0 Copyright (c) Steve Scherf et al.
# Submitted via: CDex 1.70beta2
#
DISCID=3c10db14
DTITLE=Hawkins, Coleman - In The 50s-Body and Soul Revisited
DYEAR=1900
DGENRE=Jazz
TTITLE0=(It’s No) Sin
TTITLE1=	And So To Sleep Again
TTITLE2=Spellbound
TTITLE3=Lost in a Fog
TTITLE4=Carioca
TTITLE5=Midnight Sun
TTITLE6=If I Could Be With You (One Hour tonight)
TTITLE7=I Can’t Get Started
TTITLE8=Ruby
TTITLE9=Song From Moulin Rouge
TTITLE10=My Blue Heaven
TTITLE11=Honeysuckle Rose
TTITLE12=Organ Grinder’s Swing
TTITLE13=Perdido
TTITLE14=Sweethearts On Parade
TTITLE15=The Man I Love
TTITLE16=Foolin’ Around
TTITLE17=Time On My Hands
TTITLE18=Ornithology
TTITLE19=Body and Soul
EXTD=
EXTT0=
EXTT1=
EXTT2=
EXTT3=
EXTT4=
EXTT5=
EXTT6=
EXTT7=
EXTT8=
EXTT9=
EXTT10=
EXTT11=
EXTT12=
EXTT13=
EXTT14=
EXTT15=
EXTT16=
EXTT17=
EXTT18=
EXTT19=
PLAYORDER=
